<svg xmlns="http://www.w3.org/2000/svg" id="htz-logo--small" class="htz-logo--small" x="0px" y="0px" viewBox="0 0 150 42"><path class="htz-logo__text" fill="#222222" d="M111.65 36.374c0.585 2.483 1.265 3.626 1.879 5.626h0.588c3.949-10 3.509-14.247 0.098-23.583 -0.049-0.134-0.504 0.011-0.537-0.13 0 0-0.516 4.786-2.584 9.728C110.487 31.155 110.952 33.415 111.65 36.374M0 0.069c3.418 4.936 2.901 10.154 2.901 11.617 0 0 3.231 0.043 6.322 0.038 2.807-0.003 5.864 4.355 2.458 13.804 -0.204 0.568 4.366 17.013 4.465 16.458 0.099-0.555 1.298-7.568 3.039-16.628 -2.526-5.909-7.476-14.519-3.343-25.296M31.538 11.842C30.894 10.607 28.272 6.407 31.436 0H17.554c2.272 5.242 1.839 10.761-0.114 15.877 -0.374 0.982 0.326 3.68 1.085 3.474 1.722-4.727 2.156-6.884 6.499-7.51C25.321 11.799 31.58 11.801 31.538 11.842M66.949 19.968c-0.433-4.708 1.262-10.064 1.084-12.187C67.92 6.426 67.599 2.33 65.865 0H34.421c-2.717 4.077-1.843 8.795 0.066 11.88 0.042-0.068 25.074 0.009 25.189 0.012 3.898 0.069 5.185 2.778 4.923 7.83 -0.116 2.251-1.633 5.65-2.853 7.325 -0.315 0.432 2.51 10.048 3.42 14.43 0.292 0.028 0.424-0.149 0.581-0.582 0.561-1.195 1.902-7.208 2.288-11.105C68.379 26.313 67.145 22.089 66.949 19.968M96.6 18.241c-0.726-0.474-1.303-1.95-1.084-3.274 0.277-1.683 1.785-3.014 3.252-3.014 5.313 0 10.271-0.019 10.271-0.019S105.181 5.825 108.839 0C96.042 0 94.474 0 94.474 0c0 1.165-0.532 2.188-0.418 4.171 0.116 2.042 1.443 3.728 0.6 6.804 -0.659 2.406-1.485 3.463-2.212 3.921C85.738 10.095 75.971 2.912 71.878 0h-2.792c0 0-0.249 0.047-0.166 0.204 1.456 2.759 2.08 6.403 1.764 9.528 -0.433 4.298-1.016 4.91-1.012 8.469 0.005 3.884 1.361 7.174 1.121 11.008 -0.348 5.565-1.558 10.305-2.127 11.946C68.502 41.738 68.824 42 68.824 42h17.059c-3.037-6-1.861-10.401-1.861-10.401s-3.428-0.162-6.397-0.13c-4.729 0.051-5.125-6.35-4.553-10.693 0.433-3.298 2.493-4.958 2.649-5.007l35.455 25.727c0.502 0.19-1.718-5.451-2.122-7.809 -0.512-2.995-0.311-3.776 0.347-6.631C105.196 24.341 101.941 21.732 96.6 18.241M150 6.371c0 0-0.229-6.301-3.075-6.301 -15.724 0-35.241-0.008-35.241-0.008s-3.732 5.354 0.272 11.918c0.017-0.009 29.594 0.003 29.623 0.003 2.674-0.017 3.511 3.516 3.515 5.906 0.004 2.411-1.208 6.142-1.896 8.334 -0.519 1.65 1.659 9.181 2.996 15.522l0.632 0.031c0.182-0.501 2.957-13.507 2.736-15.348 -0.132-1.119-1.149-3.282-1.778-5.846 -0.866-3.528-0.214-5.203 1.395-8.376C149.866 10.848 150 6.868 150 6.371"/></svg>